REM DIRINDEX 1\2,1\3,1\4,1\5
REM DIRNAME "folder01","folder02","folder03","folder04","folder05"
TITLE ""
FILE "P1Q_j_1749-1762.mp3" MP3
  TRACK 01 AUDIO
    TITLE "3:cjc173_0448"
    INDEX 01 00:00:00
  TRACK 02 AUDIO
    TITLE "0:"
    INDEX 01 00:01:22
  TRACK 03 AUDIO
    TITLE "4:cjc173_0449"
    INDEX 01 00:01:43
  TRACK 04 AUDIO
    TITLE "0:"
    INDEX 01 00:05:21
  TRACK 05 AUDIO
    TITLE "5:cjc173_0450"
    INDEX 01 00:05:41
  TRACK 06 AUDIO
    TITLE "0:"
    INDEX 01 00:11:43
  TRACK 07 AUDIO
    TITLE "3:cjc173_0451"
    INDEX 01 00:12:13
  TRACK 08 AUDIO
    TITLE "0:"
    INDEX 01 00:14:46
  TRACK 09 AUDIO
    TITLE "4:cjc173_0452"
    INDEX 01 00:14:67
  TRACK 10 AUDIO
    TITLE "0:"
    INDEX 01 00:17:09
  TRACK 11 AUDIO
    TITLE "5:cjc173_0453"
    INDEX 01 00:17:28
  TRACK 12 AUDIO
    TITLE "0:"
    INDEX 01 00:21:63
  TRACK 13 AUDIO
    TITLE "3:cjc173_0454"
    INDEX 01 00:22:35
  TRACK 14 AUDIO
    TITLE "0:"
    INDEX 01 00:24:70
  TRACK 15 AUDIO
    TITLE "4:cjc173_0455"
    INDEX 01 00:25:16
  TRACK 16 AUDIO
    TITLE "0:"
    INDEX 01 00:27:35
  TRACK 17 AUDIO
    TITLE "5:cjc173_0456"
    INDEX 01 00:27:56
  TRACK 18 AUDIO
    TITLE "0:"
    INDEX 01 00:32:24
  TRACK 19 AUDIO
    TITLE "3:cjc173_0457"
    INDEX 01 00:32:69
  TRACK 20 AUDIO
    TITLE "0:"
    INDEX 01 00:34:35
  TRACK 21 AUDIO
    TITLE "4:cjc173_0458"
    INDEX 01 00:34:52
  TRACK 22 AUDIO
    TITLE "0:"
    INDEX 01 00:40:55
  TRACK 23 AUDIO
    TITLE "5:cjc173_0459"
    INDEX 01 00:40:74
  TRACK 24 AUDIO
    TITLE "0:"
    INDEX 01 00:45:11
  TRACK 25 AUDIO
    TITLE "3:cjc173_0460"
    INDEX 01 00:45:56
  TRACK 26 AUDIO
    TITLE "0:"
    INDEX 01 00:47:29
  TRACK 27 AUDIO
    TITLE "4:cjc173_0461"
    INDEX 01 00:47:51
  TRACK 28 AUDIO
    TITLE "0:"
    INDEX 01 00:52:13
  TRACK 29 AUDIO
    TITLE "5:cjc173_0462"
    INDEX 01 00:52:35
  TRACK 30 AUDIO
    TITLE "0:"
    INDEX 01 00:57:14
  TRACK 31 AUDIO
    TITLE "3:cjc173_0463"
    INDEX 01 00:57:59
  TRACK 32 AUDIO
    TITLE "0:"
    INDEX 01 00:59:15
  TRACK 33 AUDIO
    TITLE "4:cjc173_0464"
    INDEX 01 00:59:35
  TRACK 34 AUDIO
    TITLE "0:"
    INDEX 01 01:04:06
  TRACK 35 AUDIO
    TITLE "5:cjc173_0465"
    INDEX 01 01:04:26
  TRACK 36 AUDIO
    TITLE "0:"
    INDEX 01 01:09:11
  TRACK 37 AUDIO
    TITLE "3:cjc173_0466"
    INDEX 01 01:09:58
  TRACK 38 AUDIO
    TITLE "0:"
    INDEX 01 01:11:20
  TRACK 39 AUDIO
    TITLE "4:cjc173_0467"
    INDEX 01 01:11:40
  TRACK 40 AUDIO
    TITLE "0:"
    INDEX 01 01:13:19
  TRACK 41 AUDIO
    TITLE "5:cjc173_0468"
    INDEX 01 01:13:39
  TRACK 42 AUDIO
    TITLE "0:"
    INDEX 01 01:17:21
  TRACK 43 AUDIO
    TITLE "3:cjc173_0469"
    INDEX 01 01:17:66
  TRACK 44 AUDIO
    TITLE "0:"
    INDEX 01 01:19:27
  TRACK 45 AUDIO
    TITLE "4:cjc173_0470"
    INDEX 01 01:19:43
  TRACK 46 AUDIO
    TITLE "0:"
    INDEX 01 01:23:39
  TRACK 47 AUDIO
    TITLE "5:cjc173_0471"
    INDEX 01 01:23:57
  TRACK 48 AUDIO
    TITLE "0:"
    INDEX 01 01:28:58
  TRACK 49 AUDIO
    TITLE "3:cjc173_0472"
    INDEX 01 01:29:28
  TRACK 50 AUDIO
    TITLE "0:"
    INDEX 01 01:30:61
  TRACK 51 AUDIO
    TITLE "4:cjc173_0473"
    INDEX 01 01:31:05
  TRACK 52 AUDIO
    TITLE "0:"
    INDEX 01 01:36:16
  TRACK 53 AUDIO
    TITLE "5:cjc173_0474"
    INDEX 01 01:36:38
  TRACK 54 AUDIO
    TITLE "0:"
    INDEX 01 01:41:31
  TRACK 55 AUDIO
    TITLE "3:cjc173_0475"
    INDEX 01 01:42:01
  TRACK 56 AUDIO
    TITLE "0:"
    INDEX 01 01:43:30
  TRACK 57 AUDIO
    TITLE "4:cjc173_0476"
    INDEX 01 01:43:52
  TRACK 58 AUDIO
    TITLE "0:"
    INDEX 01 01:48:68
  TRACK 59 AUDIO
    TITLE "5:cjc173_0477"
    INDEX 01 01:49:13
  TRACK 60 AUDIO
    TITLE "0:"
    INDEX 01 01:54:10
  TRACK 61 AUDIO
    TITLE "3:cjc173_0478"
    INDEX 01 01:54:55
  TRACK 62 AUDIO
    TITLE "0:"
    INDEX 01 01:55:63
  TRACK 63 AUDIO
    TITLE "4:cjc173_0479"
    INDEX 01 01:56:07
  TRACK 64 AUDIO
    TITLE "0:"
    INDEX 01 02:01:67
  TRACK 65 AUDIO
    TITLE "5:cjc173_0480"
    INDEX 01 02:02:12
  TRACK 66 AUDIO
    TITLE "0:"
    INDEX 01 02:06:60
  TRACK 67 AUDIO
    TITLE "3:cjc173_0481"
    INDEX 01 02:07:30
  TRACK 68 AUDIO
    TITLE "0:"
    INDEX 01 02:08:55
  TRACK 69 AUDIO
    TITLE "4:cjc173_0482"
    INDEX 01 02:09:02
  TRACK 70 AUDIO
    TITLE "0:"
    INDEX 01 02:11:54
  TRACK 71 AUDIO
    TITLE "5:cjc173_0483"
    INDEX 01 02:11:73
  TRACK 72 AUDIO
    TITLE "0:"
    INDEX 01 02:18:11
  TRACK 73 AUDIO
    TITLE "3:cjc173_0484"
    INDEX 01 02:18:56
  TRACK 74 AUDIO
    TITLE "0:"
    INDEX 01 02:20:13
  TRACK 75 AUDIO
    TITLE "4:cjc173_0485"
    INDEX 01 02:20:37
  TRACK 76 AUDIO
    TITLE "0:"
    INDEX 01 02:22:52
  TRACK 77 AUDIO
    TITLE "5:cjc173_0486"
    INDEX 01 02:22:71
  TRACK 78 AUDIO
    TITLE "0:"
    INDEX 01 02:29:38
  TRACK 79 AUDIO
    TITLE "3:cjc173_0487"
    INDEX 01 02:30:08
  TRACK 80 AUDIO
    TITLE "0:"
    INDEX 01 02:31:54
  TRACK 81 AUDIO
    TITLE "4:cjc173_0488"
    INDEX 01 02:31:74
  TRACK 82 AUDIO
    TITLE "0:"
    INDEX 01 02:36:46
  TRACK 83 AUDIO
    TITLE "5:cjc173_0489"
    INDEX 01 02:36:65
  TRACK 84 AUDIO
    TITLE "0:"
    INDEX 01 02:41:18
